# xmcd
#
# Track frame offsets: 
#        150
#        11837
#        25527
#        38311
#        52112
#        65478
#        78460
#        91243
#        104127
#        115714
#        127360
#        140171
#        152287
#        165304
#        179842
#        194483
#        208943
#        222962
#        236838
#        248764
#        261483
#        274548
#
# Disc length: 3845 seconds
#
# Revision: 2
# Processed by: cddbd v1.5.2PL0 Copyright (c) Steve Scherf et al.
# Submitted via: ExactAudioCopyFreeDBPlugin 1.0
#
DISCID=460f0316
DTITLE=Ma Rainey - Complete Recorded Works Vol. 4 (1926-1927)
DYEAR=1997
DGENRE=Blues
TTITLE0=Morning Hour Blues
TTITLE1=Weepin' Woman Blues
TTITLE2=Soon This Morning
TTITLE3=Little Low Mama Blues
TTITLE4=Grievin Hearted Blues
TTITLE5=Don't Fish in My Sea
TTITLE6=Big Boy Blues
TTITLE7=Blues Oh Blues
TTITLE8=Damper Down Blues
TTITLE9=Gone Daddy Blues
TTITLE10=Oh Papa Blues
TTITLE11=Misery Blues
TTITLE12=Dead Drunk Blues
TTITLE13=Slow Driving Moan
TTITLE14=Blues the World Forgot -- Part 1
TTITLE15="Ma" Rainey's Black Bottom
TTITLE16=Blues the World Forgot -- Part 2
TTITLE17=Hellish Rag
TTITLE18=Georgia Cake Walk
TTITLE19=New Bo-Weavil Blues
TTITLE20=Moonshine Blues
TTITLE21=Ice Bag Papa
EXTD=\nYEAR: 2000  ID3G:   0
EXTT0=
EXTT1=
EXTT2=
EXTT3=
EXTT4=
EXTT5=
EXTT6=
EXTT7=
EXTT8=
EXTT9=
EXTT10=
EXTT11=
EXTT12=
EXTT13=
EXTT14=
EXTT15=
EXTT16=
EXTT17=
EXTT18=
EXTT19=
EXTT20=
EXTT21=
PLAYORDER=
